<svg xmlns="http://www.w3.org/2000/svg" viewBox="0 0 512 512"><defs><style>.cls-1{fill:white;}</style></defs><title>50-Computer-hardware-Line-Icons</title><g id="_21" data-name="21"><path class="cls-1" d="M137.52,413.5H113a9.33,9.33,0,0,1-9.31-9.31v-10.4a2.5,2.5,0,0,1,5,0v10.4A4.32,4.32,0,0,0,113,408.5h24.53a4.32,4.32,0,0,0,4.31-4.31v-10.4a2.5,2.5,0,0,1,5,0v10.4A9.33,9.33,0,0,1,137.52,413.5Z"/><path class="cls-1" d="M399,413.5H374.48a9.33,9.33,0,0,1-9.31-9.31v-10.4a2.5,2.5,0,0,1,5,0v10.4a4.32,4.32,0,0,0,4.31,4.31H399a4.32,4.32,0,0,0,4.31-4.31v-10.4a2.5,2.5,0,0,1,5,0v10.4A9.33,9.33,0,0,1,399,413.5Z"/><path class="cls-1" d="M426.79,396.29H85.21a20.62,20.62,0,0,1-20.6-20.6V320.43a20.62,20.62,0,0,1,20.6-20.6h89.54a2.5,2.5,0,0,1,0,5H85.21a15.62,15.62,0,0,0-15.6,15.6v55.26a15.61,15.61,0,0,0,15.6,15.6H426.79a15.61,15.61,0,0,0,15.6-15.6V320.43a15.62,15.62,0,0,0-15.6-15.6H244a2.5,2.5,0,1,1,0-5H426.79a20.62,20.62,0,0,1,20.6,20.6v55.26A20.62,20.62,0,0,1,426.79,396.29Z"/><path class="cls-1" d="M331.43,366.12H320.2a6.89,6.89,0,0,1-6.88-6.89V326.72a6.89,6.89,0,0,1,6.88-6.89h11.23a6.9,6.9,0,0,1,6.89,6.89v32.51A6.9,6.9,0,0,1,331.43,366.12ZM320.2,324.83a1.89,1.89,0,0,0-1.88,1.89v32.51a1.89,1.89,0,0,0,1.88,1.89h11.23a1.89,1.89,0,0,0,1.89-1.89V326.72a1.89,1.89,0,0,0-1.89-1.89Z"/><path class="cls-1" d="M291.43,366.12H280.2a6.89,6.89,0,0,1-6.88-6.89V326.72a6.89,6.89,0,0,1,6.88-6.89h11.23a6.9,6.9,0,0,1,6.89,6.89v32.51A6.9,6.9,0,0,1,291.43,366.12ZM280.2,324.83a1.89,1.89,0,0,0-1.88,1.89v32.51a1.89,1.89,0,0,0,1.88,1.89h11.23a1.89,1.89,0,0,0,1.89-1.89V326.72a1.89,1.89,0,0,0-1.89-1.89Z"/><path class="cls-1" d="M371.43,366.12H360.2a6.89,6.89,0,0,1-6.88-6.89V326.72a6.89,6.89,0,0,1,6.88-6.89h11.23a6.9,6.9,0,0,1,6.89,6.89v32.51A6.9,6.9,0,0,1,371.43,366.12ZM360.2,324.83a1.89,1.89,0,0,0-1.88,1.89v32.51a1.89,1.89,0,0,0,1.88,1.89h11.23a1.89,1.89,0,0,0,1.89-1.89V326.72a1.89,1.89,0,0,0-1.89-1.89Z"/><path class="cls-1" d="M411.43,366.12H400.2a6.89,6.89,0,0,1-6.88-6.89V326.72a6.89,6.89,0,0,1,6.88-6.89h11.23a6.9,6.9,0,0,1,6.89,6.89v32.51A6.9,6.9,0,0,1,411.43,366.12ZM400.2,324.83a1.89,1.89,0,0,0-1.88,1.89v32.51a1.89,1.89,0,0,0,1.88,1.89h11.23a1.89,1.89,0,0,0,1.89-1.89V326.72a1.89,1.89,0,0,0-1.89-1.89Z"/><path class="cls-1" d="M97.11,344.83a12.5,12.5,0,1,1,12.5-12.5A12.52,12.52,0,0,1,97.11,344.83Zm0-20a7.5,7.5,0,1,0,7.5,7.5A7.52,7.52,0,0,0,97.11,324.83Z"/><path class="cls-1" d="M137.11,344.83a12.5,12.5,0,1,1,12.5-12.5A12.52,12.52,0,0,1,137.11,344.83Zm0-20a7.5,7.5,0,1,0,7.5,7.5A7.52,7.52,0,0,0,137.11,324.83Z"/><path class="cls-1" d="M85.21,304.83a20.62,20.62,0,0,1-20.6-20.6V229a20.62,20.62,0,0,1,20.6-20.6H335.82a2.5,2.5,0,1,1,0,5H85.21A15.62,15.62,0,0,0,69.61,229v55.26a15.62,15.62,0,0,0,15.6,15.6,2.5,2.5,0,0,1,0,5Z"/><path class="cls-1" d="M426.79,304.83a2.5,2.5,0,0,1,0-5,15.62,15.62,0,0,0,15.6-15.6V229a15.62,15.62,0,0,0-15.6-15.6h-31a2.5,2.5,0,0,1,0-5h31a20.62,20.62,0,0,1,20.6,20.6v55.26A20.62,20.62,0,0,1,426.79,304.83Z"/><path class="cls-1" d="M331.43,274.65H320.2a6.89,6.89,0,0,1-6.88-6.88V235.26a6.89,6.89,0,0,1,6.88-6.89h11.23a6.9,6.9,0,0,1,6.89,6.89v32.51A6.89,6.89,0,0,1,331.43,274.65ZM320.2,233.37a1.89,1.89,0,0,0-1.88,1.89v32.51a1.88,1.88,0,0,0,1.88,1.88h11.23a1.89,1.89,0,0,0,1.89-1.88V235.26a1.89,1.89,0,0,0-1.89-1.89Z"/><path class="cls-1" d="M291.43,274.65H280.2a6.89,6.89,0,0,1-6.88-6.88V235.26a6.89,6.89,0,0,1,6.88-6.89h11.23a6.9,6.9,0,0,1,6.89,6.89v32.51A6.89,6.89,0,0,1,291.43,274.65ZM280.2,233.37a1.89,1.89,0,0,0-1.88,1.89v32.51a1.88,1.88,0,0,0,1.88,1.88h11.23a1.89,1.89,0,0,0,1.89-1.88V235.26a1.89,1.89,0,0,0-1.89-1.89Z"/><path class="cls-1" d="M371.43,274.65H360.2a6.89,6.89,0,0,1-6.88-6.88V235.26a6.89,6.89,0,0,1,6.88-6.89h11.23a6.9,6.9,0,0,1,6.89,6.89v32.51A6.89,6.89,0,0,1,371.43,274.65ZM360.2,233.37a1.89,1.89,0,0,0-1.88,1.89v32.51a1.88,1.88,0,0,0,1.88,1.88h11.23a1.89,1.89,0,0,0,1.89-1.88V235.26a1.89,1.89,0,0,0-1.89-1.89Z"/><path class="cls-1" d="M411.43,274.65H400.2a6.89,6.89,0,0,1-6.88-6.88V235.26a6.89,6.89,0,0,1,6.88-6.89h11.23a6.9,6.9,0,0,1,6.89,6.89v32.51A6.89,6.89,0,0,1,411.43,274.65ZM400.2,233.37a1.89,1.89,0,0,0-1.88,1.89v32.51a1.88,1.88,0,0,0,1.88,1.88h11.23a1.89,1.89,0,0,0,1.89-1.88V235.26a1.89,1.89,0,0,0-1.89-1.89Z"/><path class="cls-1" d="M97.11,253.37a12.5,12.5,0,1,1,12.5-12.5A12.52,12.52,0,0,1,97.11,253.37Zm0-20a7.5,7.5,0,1,0,7.5,7.5A7.51,7.51,0,0,0,97.11,233.37Z"/><path class="cls-1" d="M137.11,253.37a12.5,12.5,0,1,1,12.5-12.5A12.52,12.52,0,0,1,137.11,253.37Zm0-20a7.5,7.5,0,1,0,7.5,7.5A7.51,7.51,0,0,0,137.11,233.37Z"/><path class="cls-1" d="M85.21,213.37a20.62,20.62,0,0,1-20.6-20.6V137.51a20.62,20.62,0,0,1,20.6-20.6h21.9a2.5,2.5,0,0,1,0,5H85.21a15.62,15.62,0,0,0-15.6,15.6v55.26a15.62,15.62,0,0,0,15.6,15.6,2.5,2.5,0,0,1,0,5Z"/><path class="cls-1" d="M426.79,213.37a2.5,2.5,0,0,1,0-5,15.62,15.62,0,0,0,15.6-15.6V137.51a15.62,15.62,0,0,0-15.6-15.6H185.73a2.5,2.5,0,0,1,0-5H426.79a20.62,20.62,0,0,1,20.6,20.6v55.26A20.62,20.62,0,0,1,426.79,213.37Z"/><path class="cls-1" d="M331.43,183.19H320.2a6.89,6.89,0,0,1-6.88-6.89V143.79a6.89,6.89,0,0,1,6.88-6.88h11.23a6.89,6.89,0,0,1,6.89,6.88V176.3A6.9,6.9,0,0,1,331.43,183.19ZM320.2,141.91a1.88,1.88,0,0,0-1.88,1.88V176.3a1.89,1.89,0,0,0,1.88,1.89h11.23a1.89,1.89,0,0,0,1.89-1.89V143.79a1.89,1.89,0,0,0-1.89-1.88Z"/><path class="cls-1" d="M291.43,183.19H280.2a6.89,6.89,0,0,1-6.88-6.89V143.79a6.89,6.89,0,0,1,6.88-6.88h11.23a6.89,6.89,0,0,1,6.89,6.88V176.3A6.9,6.9,0,0,1,291.43,183.19ZM280.2,141.91a1.88,1.88,0,0,0-1.88,1.88V176.3a1.89,1.89,0,0,0,1.88,1.89h11.23a1.89,1.89,0,0,0,1.89-1.89V143.79a1.89,1.89,0,0,0-1.89-1.88Z"/><path class="cls-1" d="M371.43,183.19H360.2a6.89,6.89,0,0,1-6.88-6.89V143.79a6.89,6.89,0,0,1,6.88-6.88h11.23a6.89,6.89,0,0,1,6.89,6.88V176.3A6.9,6.9,0,0,1,371.43,183.19ZM360.2,141.91a1.88,1.88,0,0,0-1.88,1.88V176.3a1.89,1.89,0,0,0,1.88,1.89h11.23a1.89,1.89,0,0,0,1.89-1.89V143.79a1.89,1.89,0,0,0-1.89-1.88Z"/><path class="cls-1" d="M411.43,183.19H400.2a6.89,6.89,0,0,1-6.88-6.89V143.79a6.89,6.89,0,0,1,6.88-6.88h11.23a6.89,6.89,0,0,1,6.89,6.88V176.3A6.9,6.9,0,0,1,411.43,183.19ZM400.2,141.91a1.88,1.88,0,0,0-1.88,1.88V176.3a1.89,1.89,0,0,0,1.88,1.89h11.23a1.89,1.89,0,0,0,1.89-1.89V143.79a1.89,1.89,0,0,0-1.89-1.88Z"/><path class="cls-1" d="M97.11,161.91a12.5,12.5,0,1,1,12.5-12.5A12.52,12.52,0,0,1,97.11,161.91Zm0-20a7.5,7.5,0,1,0,7.5,7.5A7.51,7.51,0,0,0,97.11,141.91Z"/><path class="cls-1" d="M137.11,161.91a12.5,12.5,0,1,1,12.5-12.5A12.52,12.52,0,0,1,137.11,161.91Zm0-20a7.5,7.5,0,1,0,7.5,7.5A7.51,7.51,0,0,0,137.11,141.91Z"/></g></svg>