<?xml version="1.0" encoding="UTF-8"?>
<!DOCTYPE svg PUBLIC "-//W3C//DTD SVG 1.1//EN" "http://www.w3.org/Graphics/SVG/1.1/DTD/svg11.dtd">
<!-- Creator: CorelDRAW -->
<svg xmlns="http://www.w3.org/2000/svg" xml:space="preserve" width="2048px" height="2048px" style="shape-rendering:geometricPrecision; text-rendering:geometricPrecision; image-rendering:optimizeQuality; fill-rule:evenodd; clip-rule:evenodd"
viewBox="0 0 2048 2048"
 xmlns:xlink="http://www.w3.org/1999/xlink">
 <defs>
  <style type="text/css">
   <![CDATA[
    .fil0 {fill:none}
    .fil1 {fill:white;fill-rule:nonzero}
   ]]>
  </style>
 </defs>
 <g id="Layer_x0020_1">
  <metadata id="CorelCorpID_0Corel-Layer"/>
  <g id="_393450736">
   <rect id="_393570144" class="fil0" width="2048" height="2048"/>
   <rect id="_393570696" class="fil0" x="255.999" y="255.999" width="1536" height="1536"/>
  </g>
  <path class="fil1" d="M1024 223.999c220.91,0 420.911,89.5442 565.684,234.318 144.774,144.773 234.318,344.773 234.318,565.684 0,220.91 -89.5442,420.911 -234.318,565.684 -144.773,144.774 -344.773,234.318 -565.684,234.318 -220.91,0 -420.911,-89.5442 -565.684,-234.318 -144.774,-144.773 -234.318,-344.773 -234.318,-565.684 0,-220.91 89.5442,-420.911 234.318,-565.684 144.773,-144.774 344.773,-234.318 565.684,-234.318zm520.433 279.568c-133.187,-133.188 -317.189,-215.567 -520.433,-215.567 -203.244,0 -387.246,82.3784 -520.433,215.567 -133.188,133.187 -215.567,317.189 -215.567,520.433 0,203.244 82.3784,387.246 215.567,520.433 133.187,133.188 317.189,215.567 520.433,215.567 203.244,0 387.246,-82.3784 520.433,-215.567 133.188,-133.187 215.567,-317.189 215.567,-520.433 0,-203.244 -82.3784,-387.246 -215.567,-520.433z"/>
  <polygon class="fil1" points="1056,319.999 1056,415.999 992,415.999 992,319.999 "/>
  <polygon class="fil1" points="1056,1632 1056,1728 992,1728 992,1632 "/>
  <polygon class="fil1" points="1728,1056 1632,1056 1632,991.999 1728,991.999 "/>
  <polygon class="fil1" points="416.001,1056 320.001,1056 320.001,991.999 416.001,991.999 "/>
  <path class="fil1" d="M1024 927.999c26.5063,0 50.5075,10.748 67.8804,28.1209 17.3728,17.3728 28.1209,41.374 28.1209,67.8804 0,26.5063 -10.748,50.5075 -28.1209,67.8804 -17.3728,17.3728 -41.374,28.1209 -67.8804,28.1209 -26.5063,0 -50.5075,-10.748 -67.8804,-28.1209 -17.3728,-17.3728 -28.1209,-41.374 -28.1209,-67.8804 0,-26.5063 10.748,-50.5075 28.1209,-67.8804 17.3728,-17.3728 41.374,-28.1209 67.8804,-28.1209zm22.6299 73.3713c-5.78741,-5.78741 -13.7894,-9.36969 -22.6299,-9.36969 -8.84056,0 -16.8425,3.58229 -22.6299,9.36969 -5.78741,5.78741 -9.36969,13.7894 -9.36969,22.6299 0,8.84056 3.58229,16.8425 9.36969,22.6299 5.78741,5.78741 13.7894,9.36969 22.6299,9.36969 8.84056,0 16.8425,-3.58229 22.6299,-9.36969 5.78741,-5.78741 9.36969,-13.7894 9.36969,-22.6299 0,-8.84056 -3.58229,-16.8425 -9.36969,-22.6299z"/>
  <path class="fil1" d="M1056 543.998c0,-17.6728 -14.328,-32.0008 -32.0008,-32.0008 -17.6728,0 -32.0008,14.328 -32.0008,32.0008l0 398.814c0,17.6728 14.328,32.0008 32.0008,32.0008 17.6728,0 32.0008,-14.328 32.0008,-32.0008l0 -398.814z"/>
  <path class="fil1" d="M1472 1056c17.6728,0 32.0008,-14.328 32.0008,-32.0008 0,-17.6728 -14.328,-32.0008 -32.0008,-32.0008l-366.813 0c-17.6728,0 -32.0008,14.328 -32.0008,32.0008 0,17.6728 14.328,32.0008 32.0008,32.0008l366.813 0z"/>
 </g>
</svg>
