<?xml version="1.0" encoding="utf-8"?>
<!-- Generator: Adobe Illustrator 16.0.0, SVG Export Plug-In . SVG Version: 6.00 Build 0)  -->
<!DOCTYPE svg PUBLIC "-//W3C//DTD SVG 1.1//EN" "http://www.w3.org/Graphics/SVG/1.1/DTD/svg11.dtd">
<svg version="1.1" id="Layer_1" xmlns="http://www.w3.org/2000/svg" xmlns:xlink="http://www.w3.org/1999/xlink" x="0px" y="0px"
	 width="128px" height="128px" viewBox="0 0 128 128" enable-background="new 0 0 128 128" xml:space="preserve">
<g>
	<g>
		<g>
			<g>
				<path fill="white" d="M71.311,99.492c-0.986,0.001-1.965-0.232-2.87-0.693l-5.674-2.864c-0.213-0.07-0.425-0.146-0.633-0.223
					l-3.606-1.338l3.167-2.184c0.351-0.242,0.622-0.554,0.808-0.928l1.549-3.125c0.597-1.205,0.112-2.679-1.081-3.281
					c-0.564-0.286-1.209-0.334-1.81-0.133c-0.609,0.203-1.103,0.635-1.39,1.216l-1.547,3.12c-0.191,0.392-0.275,0.815-0.244,1.252
					l0.254,3.521l-9.316-4.708l2.896-1.896c0.362-0.237,0.645-0.556,0.837-0.946l4.515-9.108c0.596-1.209,0.114-2.687-1.075-3.289
					c-0.563-0.283-1.204-0.33-1.806-0.131c-0.61,0.203-1.104,0.636-1.393,1.217l-4.509,9.112c-0.196,0.395-0.279,0.813-0.248,1.246
					l0.253,3.521l-9.32-4.709l2.903-1.897c0.354-0.231,0.642-0.557,0.831-0.94l3.659-7.382c0.597-1.207,0.116-2.68-1.072-3.278
					c-0.567-0.288-1.206-0.336-1.806-0.138c-0.609,0.202-1.104,0.636-1.394,1.22l-3.657,7.378c-0.191,0.384-0.275,0.814-0.244,1.245
					l0.25,3.517l-9.692-4.89l2.873-1.902c0.375-0.248,0.66-0.567,0.848-0.948l1.547-3.127c0.6-1.207,0.12-2.678-1.068-3.28
					c-0.566-0.288-1.209-0.335-1.809-0.136c-0.609,0.202-1.104,0.635-1.393,1.219l-1.545,3.12c-0.188,0.38-0.273,0.789-0.254,1.219
					l0.182,3.912l-3.275-2.146c-1.304-0.854-2.422-1.93-3.324-3.196l3.26-2.32c0.039,0.056,0.079,0.11,0.12,0.165l1.252-2.528
					c0.766-1.548,2.085-2.699,3.716-3.241c1.621-0.539,3.354-0.411,4.879,0.364c1.831,0.928,3.028,2.631,3.396,4.517l0.354-0.716
					c0.766-1.547,2.087-2.699,3.717-3.241c1.62-0.538,3.35-0.409,4.873,0.364c1.788,0.902,2.974,2.547,3.372,4.382
					c0.685-0.672,1.518-1.184,2.453-1.495c1.621-0.539,3.353-0.414,4.876,0.356c3.139,1.59,4.419,5.462,2.855,8.632l-1.008,2.034
					c0.05-0.019,0.101-0.036,0.152-0.053c1.621-0.542,3.354-0.414,4.879,0.356c3.146,1.591,4.429,5.461,2.861,8.628l-1.55,3.126
					c-0.012,0.024-0.024,0.048-0.036,0.072l4.199,2.119c0.568,0.288,1.205,0.336,1.803,0.14c0.609-0.202,1.104-0.634,1.395-1.218
					c0.415-0.839,0.314-1.866-0.257-2.613l-0.916-1.199l0.9-1.211c0.183-0.245,0.369-0.533,0.569-0.881l0.945-1.641l5.417,2.739
					c0.566,0.287,1.208,0.332,1.81,0.131c0.608-0.203,1.103-0.634,1.39-1.214c0.595-1.209,0.113-2.686-1.076-3.286l-5.471-2.775
					l2.177-4.343l10.475,5.305c0.564,0.284,1.208,0.329,1.81,0.13c0.608-0.203,1.102-0.636,1.387-1.215
					c0.604-1.215,0.123-2.688-1.068-3.289l-10.39-5.254l0.719-1.717c0.09-0.214,0.158-0.43,0.227-0.645l0.708-2.246l14.871,7.523
					c0.563,0.286,1.198,0.334,1.796,0.136c0.613-0.203,1.111-0.638,1.401-1.224c0.598-1.208,0.117-2.681-1.071-3.282L77.995,61.048
					c-1.108-0.066-2.232-0.224-3.346-0.469c-4.326-0.966-8.186-3.252-10.772-6.346L57.8,54.912l-0.038,0.205
					c-0.522,2.579-1.997,4.773-4.159,6.203c-2.138,1.414-4.694,1.908-7.199,1.394l-2.49-0.514c-0.146-0.034-0.23-0.058-0.315-0.082
					l-1.838-0.475l0.29-1.884l3.333-16.405l12.228-2.549l6.009-1.168l2.347,0.525l-0.19-0.609l-9.805-0.991l-5.202-0.448
					l-17.703,5.957l-1.275-3.792l18.492-6.223l6.062,0.523l12.475,1.301l3.033,9.699l-8.29-1.856l-5.16,1.004l-9.623,2.005
					l-2.415,11.889l0.847,0.175c1.455,0.299,2.941,0.011,4.186-0.813c1.269-0.839,2.136-2.13,2.439-3.635l0.583-3.083l11.294-1.264
					l0.684,0.955c1.992,2.783,5.315,4.867,9.12,5.716c1.025,0.227,2.063,0.361,3.079,0.399l0.437,0.017l22.572,11.425
					c3.139,1.588,4.419,5.457,2.851,8.626c-0.77,1.552-2.094,2.704-3.729,3.246c-1.281,0.422-2.627,0.43-3.884,0.034
					c0.1,1.146-0.103,2.332-0.65,3.435c-0.76,1.539-2.075,2.689-3.703,3.233c-1.622,0.539-3.356,0.417-4.882-0.354L87.538,86.7
					c0.083,1.114-0.12,2.264-0.646,3.334c-0.766,1.547-2.082,2.695-3.71,3.238c-1.619,0.541-3.353,0.415-4.879-0.354l-0.623-0.315
					c0.079,1.13-0.133,2.282-0.648,3.325c-0.771,1.55-2.093,2.7-3.724,3.24C72.653,99.385,71.98,99.492,71.311,99.492z"/>
			</g>
			<g>
				<g>
					<path fill="white" d="M100.356,72.362L77.994,61.051c-0.077-0.005-0.154-0.01-0.231-0.015l-0.291-0.019
						c-0.284-0.028-0.575-0.06-0.864-0.096l-0.093-0.012c-0.253-0.033-0.523-0.076-0.799-0.122l-0.153-0.027
						c-0.294-0.051-0.612-0.11-0.931-0.184c-0.289-0.065-0.581-0.138-0.87-0.211l-0.518-0.152c-0.137-0.039-0.273-0.079-0.411-0.124
						c-0.13-0.04-0.286-0.095-0.446-0.153l-0.069-0.022c-0.11-0.036-0.222-0.072-0.329-0.111l-0.807-0.313
						c-0.229-0.097-0.414-0.178-0.602-0.263l0.701-1.878l-0.794,1.836l-0.135-0.06c-0.115-0.053-0.232-0.11-0.35-0.168l-0.478-0.242
						c-0.166-0.08-0.401-0.209-0.63-0.343c0-0.001-0.071-0.034-0.148-0.084c-0.125-0.067-0.322-0.189-0.521-0.313
						c-0.065-0.032-0.146-0.083-0.231-0.147c-1.44-0.936-3.141-2.585-4.085-3.551l-6.111,0.645l-0.036,0.195
						c-0.522,2.579-1.998,4.773-4.16,6.203c-2.137,1.413-4.693,1.909-7.198,1.394l-2.49-0.515c-0.14-0.032-0.226-0.056-0.312-0.08
						l-1.843-0.472l0.291-1.888l3.331-16.396l1.398-0.302l16.699-3.452l19.751,4.408l13.101-4.406l1.275,3.792l-14.159,4.763
						l-20-4.466l-14.668,3.033L46.363,58.62l0.848,0.175c1.454,0.298,2.94,0.011,4.185-0.813c1.269-0.839,2.136-2.129,2.439-3.635
						l0.585-3.092l11.042-1.164l0.682,0.734c0.686,0.741,2.758,2.846,4.09,3.686l0.188,0.119c0.144,0.09,0.255,0.158,0.371,0.223
						c0.014,0.006,0.067,0.034,0.117,0.063c0.161,0.095,0.314,0.178,0.47,0.256c0.077,0.039,0.139,0.071,0.192,0.1l0.449,0.218
						c0.123,0.054,0.192,0.084,0.261,0.117c0.108,0.049,0.263,0.116,0.418,0.182l0.981,0.363c0.163,0.059,0.261,0.095,0.358,0.125
						c0.121,0.039,0.214,0.065,0.308,0.092l0.155,0.045c0.048,0.013,0.145,0.042,0.24,0.072c0.259,0.068,0.518,0.132,0.78,0.191
						c0.252,0.058,0.5,0.104,0.752,0.147c0.325,0.055,0.549,0.092,0.781,0.122l0.055,0.007c0.233,0.029,0.47,0.055,0.701,0.078
						l0.206,0.013c0.191,0.012,0.381,0.024,0.564,0.03l0.441,0.016l21.645,10.948l5.136-1.727l1.273,3.792L100.356,72.362z"/>
				</g>
				<g>
					<path fill="white" d="M60.354,96.601C60.353,96.601,60.354,96.601,60.354,96.601c-0.986,0-1.976-0.236-2.86-0.684
						c-3.14-1.591-4.42-5.463-2.855-8.633l1.546-3.121c1.087-2.199,3.281-3.565,5.725-3.565c0.989,0,1.979,0.237,2.866,0.687
						c3.145,1.589,4.429,5.459,2.858,8.628l-1.55,3.124C64.99,95.234,62.795,96.601,60.354,96.601z M61.908,84.599
						c-0.911,0-1.73,0.513-2.139,1.339l-1.547,3.119c-0.597,1.21-0.114,2.688,1.077,3.291c1.151,0.582,2.623,0.07,3.201-1.092
						l1.549-3.121c0.597-1.205,0.112-2.678-1.081-3.28C62.634,84.685,62.277,84.599,61.908,84.599z"/>
				</g>
				<g>
					<path fill="white" d="M30.428,81.46L30.428,81.46c-0.986,0-1.975-0.235-2.86-0.682c-3.148-1.588-4.428-5.462-2.853-8.637
						l1.544-3.117c1.088-2.2,3.28-3.566,5.721-3.566c0.991,0,1.985,0.239,2.875,0.69c3.138,1.588,4.415,5.458,2.845,8.624
						l-1.544,3.121C35.07,80.092,32.876,81.46,30.428,81.46z M31.979,69.459c-0.908,0-1.727,0.514-2.136,1.34l-1.545,3.119
						c-0.602,1.213-0.121,2.688,1.07,3.288c1.161,0.586,2.627,0.075,3.199-1.084l1.546-3.126c0.6-1.207,0.119-2.678-1.068-3.279
						C32.708,69.546,32.351,69.459,31.979,69.459z"/>
				</g>
				<g>
					<path fill="white" d="M50.511,91.622C50.51,91.622,50.51,91.622,50.511,91.622c-0.989,0-1.98-0.238-2.866-0.689
						c-3.145-1.593-4.422-5.465-2.846-8.631l4.508-9.106c1.088-2.199,3.283-3.565,5.728-3.565c0.986,0,1.976,0.236,2.861,0.684
						c3.139,1.589,4.419,5.461,2.855,8.631l-4.515,9.11C55.147,90.254,52.953,91.622,50.511,91.622z M55.034,73.63
						c-0.913,0-1.733,0.513-2.143,1.339l-4.509,9.112c-0.603,1.209-0.12,2.681,1.072,3.284c1.164,0.591,2.621,0.074,3.196-1.086
						l4.514-9.107c0.596-1.209,0.114-2.687-1.075-3.289C55.759,73.715,55.402,73.63,55.034,73.63z"/>
				</g>
				<g>
					<path fill="white" d="M40.667,86.64C40.667,86.64,40.667,86.64,40.667,86.64c-0.99,0-1.982-0.238-2.87-0.689
						c-3.133-1.586-4.413-5.455-2.851-8.622l3.658-7.38c1.088-2.198,3.279-3.565,5.72-3.565c0.989,0,1.982,0.238,2.871,0.689
						c3.136,1.58,4.418,5.449,2.852,8.623l-3.658,7.378C45.299,85.272,43.106,86.64,40.667,86.64z M44.324,70.384
						c-0.907,0-1.726,0.514-2.135,1.34l-3.657,7.378c-0.595,1.205-0.113,2.679,1.075,3.28c0.336,0.171,0.691,0.257,1.06,0.257l0,0
						c0.908,0,1.727-0.515,2.137-1.343l3.657-7.375c0.597-1.208,0.116-2.68-1.071-3.278C45.049,70.47,44.692,70.384,44.324,70.384z"
						/>
				</g>
			</g>
		</g>
	</g>
	<g>
		<g>
			<path fill="white" d="M107.35,77.24L94.453,38.088l20.651-8.6L128,68.649L107.35,77.24z M99.413,40.356l10.386,31.531
				l13.241-5.509l-10.386-31.537L99.413,40.356z"/>
		</g>
	</g>
	<g>
		<path fill="white" d="M22.112,80.688L0,72.547l14.504-44.039l22.108,8.141L22.112,80.688z M5.008,70.129l14.601,5.375
			l11.995-36.437l-14.596-5.375L5.008,70.129z"/>
	</g>
	<g>
		
			<rect x="13.07" y="65.501" transform="matrix(0.9478 0.319 -0.319 0.9478 22.339 -1.4118)" fill="white" width="4.819" height="4.001"/>
	</g>
	<g>
		
			<rect x="111.51" y="62.723" transform="matrix(0.312 0.9501 -0.9501 0.312 139.644 -63.2686)" fill="white" width="4" height="4.135"/>
	</g>
</g>
</svg>
