<?xml version="1.0" encoding="UTF-8"?>
<!DOCTYPE svg PUBLIC "-//W3C//DTD SVG 1.1//EN" "http://www.w3.org/Graphics/SVG/1.1/DTD/svg11.dtd">
<!-- Creator: CorelDRAW -->
<svg xmlns="http://www.w3.org/2000/svg" xml:space="preserve" width="2048px" height="2048px" style="shape-rendering:geometricPrecision; text-rendering:geometricPrecision; image-rendering:optimizeQuality; fill-rule:evenodd; clip-rule:evenodd"
viewBox="0 0 2048 2048"
 xmlns:xlink="http://www.w3.org/1999/xlink">
 <defs>
  <style type="text/css">
   <![CDATA[
    .fil1 {fill:none}
    .fil0 {fill:white}
   ]]>
  </style>
 </defs>
 <g id="Layer_x0020_1">
  <metadata id="CorelCorpID_0Corel-Layer"/>
  <g id="_325607104">
   <path id="_325607272" class="fil0" d="M1580.32 696.528c-4.57323,-17.0705 -22.1209,-27.2008 -39.1914,-22.6276l0.0106299 0.0401575 -702.107 188.128c-0.532678,0.114567 -1.06536,0.242126 -1.59803,0.38504 -17.0705,4.57323 -27.2008,22.1209 -22.6276,39.1914l0.0401575 -0.0106299 210.168 784.358c0.114567,0.532678 0.242126,1.06536 0.38504,1.59803 4.57323,17.0705 22.1209,27.2008 39.1914,22.6276l-0.0106299 -0.0401575 702.107 -188.128c0.532678,-0.114567 1.06536,-0.242126 1.59803,-0.38504 17.0705,-4.57323 27.2008,-22.1209 22.6276,-39.1914l-0.0401575 0.0106299 -210.168 -784.358c-0.114567,-0.532678 -0.242126,-1.06536 -0.38504,-1.59803zm-608.113 250.281l493.203 -132.152 1.18701 -0.350788c12.8032,-3.42992 25.9642,4.16811 29.3941,16.9713l-0.0259843 0.0236221 90.2788 336.929 0.350788 1.18701c3.42992,12.8032 -4.16811,25.9642 -16.9713,29.3941l-0.0236221 -0.0259843 -493.203 132.152 -1.18701 0.350788c-12.8032,3.42992 -25.9642,-4.16811 -29.3941,-16.9713l0.0259843 -0.0236221 -90.2788 -336.929 -0.350788 -1.18701c-3.42992,-12.8032 4.16811,-25.9642 16.9713,-29.3941l0.0236221 0.0259843z"/>
   <path id="_325607176" class="fil0" d="M1233.2 565.529c4.57441,-17.0705 -5.55709,-34.617 -22.6276,-39.1914l-0.0106299 0.0401575 -702.107 -188.13c-0.518504,-0.167717 -1.04291,-0.323622 -1.57559,-0.465355 -17.0705,-4.57559 -34.6181,5.55591 -39.1925,22.6264l0.0401575 0.0106299 -210.168 784.358c-0.167717,0.518504 -0.323622,1.0441 -0.465355,1.57677 -4.57441,17.0705 5.55709,34.617 22.6264,39.1914l0.0106299 -0.0401575 622.763 166.87 -108.563 -405.166 -314.345 -84.2292 -1.20354 -0.28937c-12.8032,-3.43111 -20.4024,-16.5921 -16.9701,-29.3941l0.034252 -0.00826772 90.28 -336.927 0.28937 -1.20354c3.43111,-12.8032 16.5921,-20.4012 29.3953,-16.9701l0.00708662 0.034252 493.203 132.154 1.20354 0.28937c12.802,3.43111 20.4012,16.5921 16.9701,29.3953l-0.034252 0.00708662 -34.8981 130.239 129.741 -34.7634 45.1323 -168.437c0.166536,-0.518504 0.322441,-1.0441 0.465355,-1.57677z"/>
  </g>
 </g>
 <rect class="fil1" width="2048" height="2048"/>
</svg>
