<svg id="Layer_1" data-name="Layer 1" xmlns="http://www.w3.org/2000/svg" viewBox="0 0 128 128"><title>PROJECT</title><path fill="white"  d="M67.243,60.988a1.75,1.75,0,0,0-.531-2.417L62.687,56l-.006,0L51.986,49.148a1.746,1.746,0,0,0-1.887,0L39.4,55.994h0l-4.027,2.577a1.75,1.75,0,1,0,1.887,2.947l1.369-.876V75.378a1.75,1.75,0,0,0,1.75,1.75H61.707a1.75,1.75,0,0,0,1.75-1.75V60.643l1.369.876a1.75,1.75,0,0,0,2.417-.53Zm-7.286,12.64H42.129V58.4l8.914-5.7,8.914,5.7Z"/><path fill="white"  d="M73.667,77.875a1.75,1.75,0,0,0-1.75,1.75v4.25h-4.25a1.75,1.75,0,1,0,0,3.5h6a1.75,1.75,0,0,0,1.75-1.75v-6A1.75,1.75,0,0,0,73.667,77.875Z"/><path fill="white"  d="M56.584,83.875H45.5a1.75,1.75,0,0,0,0,3.5H56.584a1.75,1.75,0,1,0,0-3.5Z"/><path fill="white"  d="M28.417,87.375h6a1.75,1.75,0,0,0,0-3.5h-4.25v-4.25a1.75,1.75,0,0,0-3.5,0v6A1.75,1.75,0,0,0,28.417,87.375Z"/><path fill="white"  d="M28.417,70.292a1.75,1.75,0,0,0,1.75-1.75V57.459a1.75,1.75,0,1,0-3.5,0V68.542A1.75,1.75,0,0,0,28.417,70.292Z"/><path fill="white"  d="M28.417,48.125a1.75,1.75,0,0,0,1.75-1.75v-4.25h4.25a1.75,1.75,0,0,0,0-3.5h-6a1.75,1.75,0,0,0-1.75,1.75v6A1.75,1.75,0,0,0,28.417,48.125Z"/><path fill="white"  d="M45.5,42.125H56.584a1.75,1.75,0,0,0,0-3.5H45.5a1.75,1.75,0,0,0,0,3.5Z"/><path fill="white"  d="M67.667,42.125h4.25v4.25a1.75,1.75,0,0,0,3.5,0v-6a1.75,1.75,0,0,0-1.75-1.75h-6a1.75,1.75,0,0,0,0,3.5Z"/><path fill="white"  d="M73.667,55.708a1.75,1.75,0,0,0-1.75,1.75V68.541a1.75,1.75,0,0,0,3.5,0V57.458A1.75,1.75,0,0,0,73.667,55.708Z"/><path fill="white"  d="M115,20.526H74.875V18.058a1.75,1.75,0,0,0-1.75-1.75h-3.3a6.084,6.084,0,0,0-11.654,0h-3.3a1.75,1.75,0,0,0-1.75,1.75v2.469H13a1.75,1.75,0,0,0-1.75,1.75v9A1.75,1.75,0,0,0,13,33.026h3.929v61.7a1.75,1.75,0,0,0,1.75,1.75H94v10.4a4.75,4.75,0,1,0,3.5,0v-10.4h11.821a1.75,1.75,0,0,0,1.75-1.75v-61.7H115a1.75,1.75,0,0,0,1.75-1.75v-9A1.75,1.75,0,0,0,115,20.526Zm-19.25,92a1.25,1.25,0,1,1,1.25-1.25A1.251,1.251,0,0,1,95.75,112.526ZM59.667,19.808a1.75,1.75,0,0,0,1.75-1.75,2.583,2.583,0,1,1,5.167,0,1.75,1.75,0,0,0,1.75,1.75h3.042v4.938H56.625V19.808Zm47.9,73.166H20.429V33.026h87.142Zm5.679-63.447H14.75v-5.5H53.125V26.5a1.75,1.75,0,0,0,1.75,1.75h18.25a1.75,1.75,0,0,0,1.75-1.75V24.026H113.25Z"/><path fill="white"  d="M83.667,47.359H99.333a1.75,1.75,0,1,0,0-3.5H83.667a1.75,1.75,0,0,0,0,3.5Z"/><path fill="white"  d="M83.667,56.151h8.708a1.75,1.75,0,0,0,0-3.5H83.667a1.75,1.75,0,1,0,0,3.5Z"/><path fill="white"  d="M83.667,64.942H99.333a1.75,1.75,0,1,0,0-3.5H83.667a1.75,1.75,0,1,0,0,3.5Z"/><path fill="white"  d="M83.667,73.734h8.708a1.75,1.75,0,0,0,0-3.5H83.667a1.75,1.75,0,0,0,0,3.5Z"/><path fill="white"  d="M83.667,82.526H99.333a1.75,1.75,0,1,0,0-3.5H83.667a1.75,1.75,0,1,0,0,3.5Z"/></svg>