<?xml version="1.0" encoding="utf-8"?>
<!-- Generator: Adobe Illustrator 16.0.0, SVG Export Plug-In . SVG Version: 6.00 Build 0)  -->
<!DOCTYPE svg PUBLIC "-//W3C//DTD SVG 1.1//EN" "http://www.w3.org/Graphics/SVG/1.1/DTD/svg11.dtd">
<svg version="1.1" id="Layer_1" xmlns="http://www.w3.org/2000/svg" xmlns:xlink="http://www.w3.org/1999/xlink" x="0px" y="0px"
	 width="128px" height="128px" viewBox="0 0 128 128" enable-background="new 0 0 128 128" xml:space="preserve">
<g>
	<g>
		<g>
			<path fill="white" d="M117.427,116.718H10.572c-4.061,0-7.364-3.338-7.364-7.441V85.603c-0.167-0.966,0.921-2.695,7.219-12.702
				c2.913-4.628,8.599-13.583,13.955-21.561l3.321,2.229C19.139,66.326,8.812,82.945,7.208,85.728v23.549
				c0,1.897,1.509,3.441,3.364,3.441h106.855c1.856,0,3.366-1.544,3.366-3.441V85.424c-0.403-1.155-3.449-6.629-21.851-32.153
				l3.244-2.339c22.606,31.355,22.606,33.13,22.606,34.305v24.039C124.793,113.38,121.488,116.718,117.427,116.718z"/>
		</g>
		<g>
			<path fill="white" d="M34.408,89.155H10.573c-2.901,0-5.541-1.737-6.724-4.425l3.661-1.611
				c0.544,1.237,1.747,2.036,3.063,2.036h23.835V89.155z"/>
		</g>
		<g>
			<path fill="white" d="M117.424,89.155H93.393v-4h24.031c1.318,0,2.523-0.8,3.07-2.038l3.658,1.615
				C122.966,87.419,120.325,89.155,117.424,89.155z"/>
		</g>
		<g>
			<path fill="white" d="M64.001,110.813c-18.011,0-32.664-14.853-32.664-33.108c0-18.258,14.653-33.112,32.664-33.112
				c18.01,0,32.661,14.854,32.661,33.112C96.662,95.961,82.011,110.813,64.001,110.813z M64.001,48.593
				c-15.806,0-28.664,13.059-28.664,29.112c0,16.051,12.858,29.108,28.664,29.108c15.804,0,28.661-13.058,28.661-29.108
				C92.662,61.652,79.805,48.593,64.001,48.593z"/>
		</g>
		<g>
			<path fill="white" d="M63.052,97.356c-1.491-0.073-2.969-0.319-4.393-0.731l1.111-3.842c1.126,0.325,2.296,0.52,3.477,0.577
				L63.052,97.356z M67.493,97.062l-0.725-3.934c1.158-0.214,2.291-0.563,3.367-1.038l1.615,3.66
				C70.39,96.351,68.958,96.792,67.493,97.062z M54.552,94.897c-1.291-0.73-2.5-1.61-3.596-2.617l2.707-2.945
				c0.871,0.801,1.832,1.501,2.857,2.08L54.552,94.897z M75.587,93.495l-2.408-3.193c0.941-0.71,1.804-1.53,2.563-2.437l3.066,2.568
				C77.854,91.573,76.771,92.603,75.587,93.495z M48.046,88.925c-0.84-1.223-1.542-2.543-2.085-3.922l3.721-1.467
				c0.434,1.099,0.993,2.15,1.662,3.125L48.046,88.925z M81.263,86.729l-3.564-1.816c0.538-1.055,0.956-2.17,1.244-3.316
				l3.879,0.975C82.461,84.008,81.937,85.407,81.263,86.729z M44.807,80.718c-0.15-0.987-0.226-2-0.227-3.012
				c0-0.478,0.017-0.95,0.05-1.418l3.99,0.283c-0.026,0.374-0.04,0.753-0.04,1.134c0,0.811,0.062,1.622,0.182,2.411L44.807,80.718z
				 M83.415,78.171l-4-0.082l0.005-0.384c0-1.063-0.105-2.125-0.313-3.157l3.922-0.787c0.259,1.291,0.391,2.618,0.391,3.944
				L83.415,78.171z M49.26,73.085l-3.828-1.16c0.43-1.419,1.021-2.791,1.758-4.078l3.472,1.986
				C50.075,70.859,49.603,71.953,49.26,73.085z M78.024,71.178c-0.487-1.077-1.096-2.101-1.811-3.042l3.186-2.418
				c0.896,1.18,1.66,2.463,2.27,3.813L78.024,71.178z M52.756,66.979l-2.938-2.715c1.009-1.092,2.141-2.068,3.365-2.901l2.251,3.307
				C54.461,65.332,53.56,66.108,52.756,66.979z M73.77,65.578c-0.907-0.757-1.901-1.409-2.953-1.937l1.795-3.575
				c1.325,0.666,2.577,1.487,3.721,2.44L73.77,65.578z M58.56,63.033l-1.433-3.734c1.389-0.533,2.842-0.903,4.319-1.099l0.527,3.965
				C60.806,62.32,59.657,62.612,58.56,63.033z M67.505,62.436C66.363,62.167,65.184,62.03,64,62.03v-4
				c1.493,0,2.981,0.172,4.423,0.513L67.505,62.436z"/>
		</g>
		<g>
			<path fill="white" d="M121.068,37.515C109.28,23.53,88.38,15.204,65.168,15.311c-24.287-0.546-46.052,7.741-58.246,22.201
				l-3.058-2.578c12.967-15.378,35.899-24.223,61.343-23.623c24.336-0.11,46.378,8.747,58.92,23.625L121.068,37.515z"/>
		</g>
		<g>
			<path fill="white" d="M96.964,37.896l-3.916-0.818c0.103-0.488-0.01-0.739-0.133-0.921c-0.464-0.685-1.821-1.283-3.633-1.6
				c-3.822-0.686-17.14-1.378-25.328-1.617c-8.149,0.24-21.415,0.931-25.232,1.611c-1.813,0.319-3.17,0.918-3.635,1.601
				c-0.124,0.182-0.237,0.435-0.136,0.927l-3.918,0.806c-0.298-1.449-0.04-2.825,0.745-3.98c1.122-1.651,3.223-2.759,6.246-3.292
				c4.195-0.747,17.918-1.44,25.871-1.672l0.058-0.002l0.059,0.002c7.991,0.231,21.771,0.925,25.969,1.678
				c3.019,0.529,5.122,1.638,6.245,3.294C97.011,35.07,97.266,36.447,96.964,37.896z"/>
		</g>
		<g>
			<g>
				<path fill="white" d="M31.56,54.537H4.885C2.191,54.535,0,52.325,0,49.609V39.37c0-2.716,2.191-4.925,4.885-4.925h14.296v4
					H4.885C4.397,38.444,4,38.859,4,39.37v10.24c0,0.511,0.397,0.927,0.886,0.927H31.56c0.486,0,0.881-0.416,0.881-0.926V39.37
					c0-0.51-0.395-0.925-0.881-0.925h-6.226v-4h6.226c2.691,0,4.881,2.209,4.881,4.925V49.61
					C36.441,52.327,34.251,54.537,31.56,54.537z"/>
			</g>
			<g>
				<path fill="white" d="M123.115,54.537H96.439c-2.69,0-4.879-2.21-4.879-4.926V39.37c0-2.716,2.188-4.925,4.879-4.925h6.228v4
					h-6.228c-0.484,0-0.879,0.415-0.879,0.925V49.61c0,0.511,0.395,0.926,0.879,0.926h26.676c0.488,0,0.885-0.416,0.885-0.926V39.37
					c0-0.51-0.396-0.925-0.885-0.925h-14.293v-4h14.293c2.693,0,4.885,2.209,4.885,4.925V49.61
					C128,52.327,125.809,54.537,123.115,54.537z"/>
			</g>
		</g>
	</g>
</g>
</svg>
